<svg version="1.1" id="Layer_1" xmlns="http://www.w3.org/2000/svg" xmlns:xlink="http://www.w3.org/1999/xlink" x="0px" y="0px"
	 width="100%" viewBox="0 0 518 511" enable-background="new 0 0 518 511" xml:space="preserve">
<path fill="#FCFCFC" opacity="1.000000" stroke="none" 
	d="
M313.000000,512.000000 
	C208.691879,512.000000 104.883751,512.000000 1.037811,512.000000 
	C1.037811,341.733246 1.037811,171.466461 1.037811,1.099839 
	C173.558136,1.099839 346.116333,1.099839 518.837280,1.099839 
	C518.837280,171.333206 518.837280,341.666595 518.837280,512.000000 
	C450.466400,512.000000 381.983185,512.000000 313.000000,512.000000 
M149.870651,67.220505 
	C141.001251,68.447235 132.135071,69.697876 123.261543,70.894043 
	C114.207756,72.114517 105.022034,72.695351 96.114182,74.590675 
	C75.944092,78.882301 62.337238,96.862175 62.301109,118.888893 
	C62.256569,146.043732 62.626972,173.199051 62.632366,200.354187 
	C62.648708,282.662750 62.581932,364.971313 62.533611,447.279877 
	C62.516479,476.462769 81.174385,495.684570 110.247864,494.697723 
	C128.474350,494.079041 146.638092,491.424194 164.812515,489.516602 
	C180.828674,487.835571 196.811905,485.841888 212.825760,484.137421 
	C227.866272,482.536530 242.933548,481.188812 257.978821,479.630798 
	C281.611572,477.183533 305.232666,474.623169 328.864777,472.169281 
	C342.917358,470.710083 357.014801,469.632874 371.033234,467.906097 
	C395.796814,464.855621 415.154816,441.690186 415.163147,415.313599 
	C415.198303,303.845703 415.055634,192.377533 415.276215,80.910057 
	C415.323120,57.202774 392.833862,37.387150 366.794678,40.265388 
	C349.468811,42.180508 332.225494,44.830643 314.924011,46.981266 
	C294.650879,49.501274 274.346527,51.769646 254.070404,54.266319 
	C219.625107,58.507698 185.191299,62.842327 149.870651,67.220505 
M357.874634,501.666626 
	C371.860962,502.152405 385.844238,502.778137 399.834564,503.079163 
	C410.796265,503.315033 421.859741,504.072845 432.714722,502.978729 
	C459.578796,500.271149 480.368195,476.500031 480.397461,449.497955 
	C480.437744,412.333099 480.410034,375.168182 480.410095,338.003296 
	C480.410187,266.340057 480.438934,194.676788 480.393066,123.013565 
	C480.376770,97.543396 460.816498,75.855453 436.769440,74.831367 
	C436.769440,76.646011 436.769409,78.455200 436.769409,80.264397 
	C436.769897,190.592438 436.782288,300.920471 436.735870,411.248505 
	C436.733551,416.733917 436.550507,422.259094 435.891632,427.697937 
	C431.827576,461.245728 408.219391,480.956665 376.546936,485.828186 
	C350.788269,489.790131 324.754028,491.955261 298.847107,494.961304 
	C290.390320,495.942566 281.949646,497.062897 273.501587,498.119629 
	C273.521637,498.690094 273.541687,499.260529 273.561737,499.830994 
	C284.206116,499.830994 294.855499,499.622284 305.493683,499.878601 
	C322.645691,500.291809 339.790344,501.011505 357.874634,501.666626 
z"/>
<path fill="#010101" opacity="1.000000" stroke="none" 
	d="
M150.311646,67.179138 
	C185.191299,62.842327 219.625107,58.507698 254.070404,54.266319 
	C274.346527,51.769646 294.650879,49.501274 314.924011,46.981266 
	C332.225494,44.830643 349.468811,42.180508 366.794678,40.265388 
	C392.833862,37.387150 415.323120,57.202774 415.276215,80.910057 
	C415.055634,192.377533 415.198303,303.845703 415.163147,415.313599 
	C415.154816,441.690186 395.796814,464.855621 371.033234,467.906097 
	C357.014801,469.632874 342.917358,470.710083 328.864777,472.169281 
	C305.232666,474.623169 281.611572,477.183533 257.978821,479.630798 
	C242.933548,481.188812 227.866272,482.536530 212.825760,484.137421 
	C196.811905,485.841888 180.828674,487.835571 164.812515,489.516602 
	C146.638092,491.424194 128.474350,494.079041 110.247864,494.697723 
	C81.174385,495.684570 62.516479,476.462769 62.533611,447.279877 
	C62.581932,364.971313 62.648708,282.662750 62.632366,200.354187 
	C62.626972,173.199051 62.256569,146.043732 62.301109,118.888893 
	C62.337238,96.862175 75.944092,78.882301 96.114182,74.590675 
	C105.022034,72.695351 114.207756,72.114517 123.261543,70.894043 
	C132.135071,69.697876 141.001251,68.447235 150.311646,67.179138 
M298.802887,407.069977 
	C313.030243,405.638916 327.244293,404.053802 341.488831,402.821136 
	C355.134521,401.640289 357.197662,394.946136 357.180389,384.494751 
	C357.047485,304.165558 357.107147,223.836060 357.106750,143.506653 
	C357.106750,142.006729 357.187897,140.501144 357.087280,139.007889 
	C356.697021,133.216522 352.654022,129.062317 346.867004,128.735580 
	C344.219940,128.586136 341.525269,128.723068 338.888367,129.035370 
	C311.512756,132.277817 284.163727,135.753342 256.769714,138.829605 
	C216.306992,143.373428 175.815048,147.657242 135.332733,152.025787 
	C124.521034,153.192505 120.828773,156.881165 120.826256,167.034073 
	C120.805954,248.863373 120.805626,330.692657 120.831306,412.521973 
	C120.834343,422.185242 124.646637,426.013428 134.372818,425.161438 
	C152.094269,423.609131 169.780396,421.638031 187.468445,419.723419 
	C210.426758,417.238403 233.377304,414.679535 256.321991,412.071442 
	C270.188110,410.495300 284.036804,408.765686 298.802887,407.069977 
z"/>
<path fill="#010101" opacity="1.000000" stroke="none" 
	d="
M357.406372,501.634186 
	C339.790344,501.011505 322.645691,500.291809 305.493683,499.878601 
	C294.855499,499.622284 284.206116,499.830994 273.561737,499.830994 
	C273.541687,499.260529 273.521637,498.690094 273.501587,498.119629 
	C281.949646,497.062897 290.390320,495.942566 298.847107,494.961304 
	C324.754028,491.955261 350.788269,489.790131 376.546936,485.828186 
	C408.219391,480.956665 431.827576,461.245728 435.891632,427.697937 
	C436.550507,422.259094 436.733551,416.733917 436.735870,411.248505 
	C436.782288,300.920471 436.769897,190.592438 436.769409,80.264397 
	C436.769409,78.455200 436.769440,76.646011 436.769440,74.831367 
	C460.816498,75.855453 480.376770,97.543396 480.393066,123.013565 
	C480.438934,194.676788 480.410187,266.340057 480.410095,338.003296 
	C480.410034,375.168182 480.437744,412.333099 480.397461,449.497955 
	C480.368195,476.500031 459.578796,500.271149 432.714722,502.978729 
	C421.859741,504.072845 410.796265,503.315033 399.834564,503.079163 
	C385.844238,502.778137 371.860962,502.152405 357.406372,501.634186 
z"/>
<path fill="#FAFAFA" opacity="1.000000" stroke="none" 
	d="
M298.348083,407.087494 
	C284.036804,408.765686 270.188110,410.495300 256.321991,412.071442 
	C233.377304,414.679535 210.426758,417.238403 187.468445,419.723419 
	C169.780396,421.638031 152.094269,423.609131 134.372818,425.161438 
	C124.646637,426.013428 120.834343,422.185242 120.831306,412.521973 
	C120.805626,330.692657 120.805954,248.863373 120.826256,167.034073 
	C120.828773,156.881165 124.521034,153.192505 135.332733,152.025787 
	C175.815048,147.657242 216.306992,143.373428 256.769714,138.829605 
	C284.163727,135.753342 311.512756,132.277817 338.888367,129.035370 
	C341.525269,128.723068 344.219940,128.586136 346.867004,128.735580 
	C352.654022,129.062317 356.697021,133.216522 357.087280,139.007889 
	C357.187897,140.501144 357.106750,142.006729 357.106750,143.506653 
	C357.107147,223.836060 357.047485,304.165558 357.180389,384.494751 
	C357.197662,394.946136 355.134521,401.640289 341.488831,402.821136 
	C327.244293,404.053802 313.030243,405.638916 298.348083,407.087494 
M301.667969,226.162888 
	C312.691040,224.952927 323.714111,223.742950 334.993408,222.504868 
	C334.993408,198.467880 334.993408,174.592468 334.993408,150.367767 
	C305.361847,153.780289 275.976471,157.164474 246.694016,160.536789 
	C246.694016,184.720840 246.694016,208.121033 246.694016,232.093292 
	C264.894989,230.099319 282.821686,228.135391 301.667969,226.162888 
M151.573029,171.005386 
	C148.506134,171.433899 145.439255,171.862396 142.434158,172.282272 
	C142.434158,196.213852 142.434158,219.771912 142.434158,243.544647 
	C170.132904,240.459686 197.486603,237.413162 224.985840,234.350418 
	C224.985840,210.466461 224.985840,186.737320 224.985840,162.452911 
	C200.585281,165.328720 176.529755,168.163879 151.573029,171.005386 
M322.350159,311.005035 
	C326.582733,310.476654 330.815308,309.948273 334.946350,309.432587 
	C334.946350,287.173279 334.946350,265.271088 334.946350,243.203201 
	C305.305878,246.587051 276.010834,249.931473 246.549133,253.294922 
	C246.549133,275.270294 246.549133,297.013031 246.549133,319.154114 
	C255.524124,318.248047 264.252411,317.419769 272.968109,316.475586 
	C289.133392,314.724457 305.291382,312.905609 322.350159,311.005035 
M211.696152,322.277283 
	C216.103149,321.739929 220.510147,321.202545 224.907196,320.666382 
	C224.907196,298.658813 224.907196,276.940735 224.907196,254.970566 
	C197.176941,258.140656 169.833405,261.266510 142.501541,264.391022 
	C142.501541,286.406219 142.501541,308.078644 142.501541,330.106415 
	C165.600952,327.475983 188.191940,324.903473 211.696152,322.277283 
M261.945374,390.392792 
	C286.300110,387.722504 310.654846,385.052246 334.887939,382.395325 
	C334.887939,364.618958 334.887939,347.262299 334.887939,329.865784 
	C332.674561,329.972443 330.836273,329.958649 329.022797,330.163971 
	C306.277374,332.738556 283.534088,335.332153 260.794006,337.953766 
	C256.201904,338.483185 249.979004,337.590729 247.511459,340.197205 
	C245.110214,342.733582 246.389877,348.916840 246.355804,353.501099 
	C246.260880,366.278809 246.322830,379.057678 246.322830,392.275818 
	C251.573975,391.669067 256.317749,391.120911 261.945374,390.392792 
M158.503723,349.036774 
	C153.102982,349.615540 147.702240,350.194305 142.615692,350.739380 
	C142.615692,368.620300 142.615692,385.986633 142.615692,403.637482 
	C170.431122,400.507904 197.746765,397.434570 224.997360,394.368530 
	C224.997360,376.535339 224.997360,359.273621 224.997360,341.461273 
	C202.912369,344.009766 181.158524,346.520020 158.503723,349.036774 
z"/>
<path fill="#020202" opacity="1.000000" stroke="none" 
	d="
M301.208191,226.167175 
	C282.821686,228.135391 264.894989,230.099319 246.694016,232.093292 
	C246.694016,208.121033 246.694016,184.720840 246.694016,160.536789 
	C275.976471,157.164474 305.361847,153.780289 334.993408,150.367767 
	C334.993408,174.592468 334.993408,198.467880 334.993408,222.504868 
	C323.714111,223.742950 312.691040,224.952927 301.208191,226.167175 
z"/>
<path fill="#020202" opacity="1.000000" stroke="none" 
	d="
M152.023621,171.002213 
	C176.529755,168.163879 200.585281,165.328720 224.985840,162.452911 
	C224.985840,186.737320 224.985840,210.466461 224.985840,234.350418 
	C197.486603,237.413162 170.132904,240.459686 142.434158,243.544647 
	C142.434158,219.771912 142.434158,196.213852 142.434158,172.282272 
	C145.439255,171.862396 148.506134,171.433899 152.023621,171.002213 
z"/>
<path fill="#030303" opacity="1.000000" stroke="none" 
	d="
M321.901276,311.059998 
	C305.291382,312.905609 289.133392,314.724457 272.968109,316.475586 
	C264.252411,317.419769 255.524124,318.248047 246.549133,319.154114 
	C246.549133,297.013031 246.549133,275.270294 246.549133,253.294922 
	C276.010834,249.931473 305.305878,246.587051 334.946350,243.203201 
	C334.946350,265.271088 334.946350,287.173279 334.946350,309.432587 
	C330.815308,309.948273 326.582733,310.476654 321.901276,311.059998 
z"/>
<path fill="#020202" opacity="1.000000" stroke="none" 
	d="
M211.239532,322.304138 
	C188.191940,324.903473 165.600952,327.475983 142.501541,330.106415 
	C142.501541,308.078644 142.501541,286.406219 142.501541,264.391022 
	C169.833405,261.266510 197.176941,258.140656 224.907196,254.970566 
	C224.907196,276.940735 224.907196,298.658813 224.907196,320.666382 
	C220.510147,321.202545 216.103149,321.739929 211.239532,322.304138 
z"/>
<path fill="#030303" opacity="1.000000" stroke="none" 
	d="
M261.503479,390.482788 
	C256.317749,391.120911 251.573975,391.669067 246.322830,392.275818 
	C246.322830,379.057678 246.260880,366.278809 246.355804,353.501099 
	C246.389877,348.916840 245.110214,342.733582 247.511459,340.197205 
	C249.979004,337.590729 256.201904,338.483185 260.794006,337.953766 
	C283.534088,335.332153 306.277374,332.738556 329.022797,330.163971 
	C330.836273,329.958649 332.674561,329.972443 334.887939,329.865784 
	C334.887939,347.262299 334.887939,364.618958 334.887939,382.395325 
	C310.654846,385.052246 286.300110,387.722504 261.503479,390.482788 
z"/>
<path fill="#030303" opacity="1.000000" stroke="none" 
	d="
M158.954193,349.033539 
	C181.158524,346.520020 202.912369,344.009766 224.997360,341.461273 
	C224.997360,359.273621 224.997360,376.535339 224.997360,394.368530 
	C197.746765,397.434570 170.431122,400.507904 142.615692,403.637482 
	C142.615692,385.986633 142.615692,368.620300 142.615692,350.739380 
	C147.702240,350.194305 153.102982,349.615540 158.954193,349.033539 
z"/>
</svg>